<?xml version="1.0" encoding="utf-8"?>
<!-- Generator: Adobe Illustrator 27.6.1, SVG Export Plug-In . SVG Version: 6.00 Build 0)  -->
<svg version="1.1" id="Layer_1" xmlns="http://www.w3.org/2000/svg" xmlns:xlink="http://www.w3.org/1999/xlink" x="0px" y="0px"
	 viewBox="0 0 595.28 841.89" style="enable-background:new 0 0 595.28 841.89;" xml:space="preserve">
<path d="M289.35,599.76"/>
<path d="M160.83,693.53c-19.46-141.8-29.37-226.8-47.32-338.78c0.04-45.34-30.78-106.75-16.99-144.21
	c11.09-53.04,50.06-45.02,74.25-3.08c-12.6-48.22,21.16-111.23,56.95-50.89c-2.19-17.15-11.22-62.47,24.3-72.87
	c23.62-2.18,61.17,10.81,62.9,37.53c0,8.16,2.31,55.72,4.69,102.36c6.63-39.3-8.04-88.56,41.64-83.75
	c65.19,33.77,32.01,227.36,43.97,269.07l-16.56,0.62c-6.8-31.2,8.88-228.54-29.24-253.21c-19-1.79-19.14,5.45-20.09,25.93
	c0,27.07-14.11,135.57-14.71,140.18l-16.49-0.62c-3.96-12.8-3.24-191.99-15.05-209.26c-26.4-21.82-57.37-15-51.37,26.67
	c9.5,58.71,24.72,154.75,34.07,213.79l-16.32,2.91C230.22,115.38,152.85,46,205.02,353.2l-16.37,2.62
	c-7.42-33.45-8.79-157.07-64.57-167.15c-39.16,107.26,57.57,441.84,50.64,495.13"/>
<path d="M359.28,720.64c53.18-138.68-8.01-92.93,142.35-284.06c17.86-33.85,69.58-64.13,20.23-71.91
	c-59.02-29.51-215.17,205.62-233.12,158.1c24.16-11.85,181.44-204.21,236.83-174.26c98.94,13.52-63.16,140.09-66.97,182.56
	c-101.05,174.89-29.46,92.6-81.76,197.91L359.28,720.64z"/>
</svg>
