<?xml version="1.0" encoding="utf-8"?>
<!-- Generator: Adobe Illustrator 27.6.1, SVG Export Plug-In . SVG Version: 6.00 Build 0)  -->
<svg version="1.1" id="Layer_1" xmlns="http://www.w3.org/2000/svg" xmlns:xlink="http://www.w3.org/1999/xlink" x="0px" y="0px"
	 viewBox="0 0 595.28 841.89" style="enable-background:new 0 0 595.28 841.89;" xml:space="preserve">
<path d="M370.87,247.41l-4.34-1.16c3.34-11.67,24.63-95.24,30.76-123.96c10.16-32.52,14.47-63.22-11.25-84
	c-31.82-17.26-105.61-18.47-98,51.06c-1.72,34.07,15.18,138.38,23.11,150.6c-0.09-0.09-0.43-0.32-0.95-0.32v4.49
	c-7.57,10.61-27.99-123.24-26.04-134.12C272.38,26.91,328.11,7.84,389.05,34.95c26.49,21.39,23.66,54.62,12.6,88.41
	C395.57,151.65,374.19,236.49,370.87,247.41z"/>
<path d="M438.08,711.98l-3.91-2.2c9.96-15.84,21.76-35.2,25.44-65.67c7.92-46.94,29.9-91.63,36.76-136.81
	c4.09-23.83-8.49-82.16-8.94-107.92c0.94-14.16,0.09-63.59,0-86.12c-0.4-13.06-31.59-35.58-42.11-48.13
	c-24.84-23.93-50.31-16.17-63.78-54.06l4.08-1.88c12.49,36.46,39.27,28.67,63.14,53.03c11.68,13.59,43.35,36.17,43.17,51.03
	c0.1,22.68,0.94,72.05,0,86.41c0.71,26.46,13.04,83.76,8.9,108.24c-6.89,45.56-28.78,89.87-36.8,137.09
	C459.87,677.16,448.55,695.46,438.08,711.98z"/>
<path d="M445.82,802.5c-8.92-42.5-27.82-174.92-34.72-233.15c-9.04-32.63,5.32-116.76,9.67-141.75
	c34.54,37.82,8.91,142.59,10.65,183.18l-4.49-0.1c-1.68-41.05,20.18-126.11-3.29-171.23c-27.09,103.35,12.77,268.97,26.61,362.25
	L445.82,802.5z"/>
<path d="M249.45,800.11c0-3.17,0.28-31.13,10.86-38.53c9.98-6.98,49.25-25.21,50.92-25.98l0.94-0.21h13.23v4.49
	c-15.48-2.96-44.97,15.81-62.53,25.37c-7.35,5.14-8.95,26.9-8.94,34.85L249.45,800.11z"/>
<path d="M338.22,802.11h-4.49c0-4.79-10-32.99-16.71-50.77l4.2-1.59C322.96,754.36,338.22,794.96,338.22,802.11z"/>
<path d="M141.23,807.38c-14.64-69.61,14.68-110,30.77-179.25c22.38-72,25.32-212.01,27.71-274.35h4.49
	c-2.46,63.25-5.31,202.59-27.81,275.25c-15.85,69.16-45.14,108.36-30.71,177.72L141.23,807.38z"/>
<path d="M145.76,384.92C30.71,394.21,75.1,267.4,79.07,200.11c4.57-13.17-43.6-180.28-0.25-137.6c0.24-7.86,9.06-17.53,15.7-14.58
	c0.27-14.04,5.74-18.24,16.71-16.46c6.89,7.63,1.88,21.22,4.63,44.74c1.34-12,3.7-35.97,15.13-24.48
	c11.08,25.86,6.66,57.71,7.64,78.1l-4.49-0.02c-0.61-16.78,2.65-62.85-8.18-76.82c-6.76,11.85-6.34,35.5-8.37,62.4l-4.48-0.02
	c-0.14-2.97-3.31-72.84-3.31-78.77c-18.41-7.6-10.15,40.15-12.7,77.34l-4.49,0.03c-0.14-1.32-0.43-55.46-0.8-62.5
	c-15.36,7.86-7.9,31.29-7.94,64.32l-4.48,0.31c-3.65-20.26,0.53-68.76-13.81-53.03c-4.48,23.17,7.14,59.28,10.75,87.01
	c26.43,72.71-30.63,142.51,8.71,210.88c40.48,44.18,101.69,7.36,124.52-20.49l3.25,3.1C211.23,345.25,173.18,384.92,145.76,384.92z"
	/>
<path d="M129.73,300.77c-20.07,0.24-11.35-33.69-13.45-48.35c-2.16-14.18,19.97-56.84,27.5-76.39c5.94-14.67,17-42.76,24.6-56.44
	c2.52-3.67,3.72-5.7,1.68-8.18c-17.71,6.39-30.14,24.8-49.81,48.34l-3.51-2.8c10.63-10.85,42.51-60.28,58.01-46.56
	c2.12,4.77-0.32,8.31-2.67,11.74c-5.51,8.42-5.96,14.07-12.21,26.91c-13.79,38.41-42.75,81.9-39,118.87
	c-4.59,39.15,15.7,30.88,40.13,12.49c39.86-28.54,97.94-39.96,132.84-71.61l3.61,2.67c-28.63,26.37-76.83,41.63-113.81,59.83
	C167.44,279.23,145.79,300.6,129.73,300.77z"/>
</svg>
