<?xml version="1.0" encoding="utf-8"?>
<!-- Generator: Adobe Illustrator 27.6.1, SVG Export Plug-In . SVG Version: 6.00 Build 0)  -->
<svg version="1.1" id="Layer_1" xmlns="http://www.w3.org/2000/svg" xmlns:xlink="http://www.w3.org/1999/xlink" x="0px" y="0px"
	 viewBox="0 0 595.28 841.89" style="enable-background:new 0 0 595.28 841.89;" xml:space="preserve">
<path d="M171.12,741.64c-4.92-0.98-4.81-6.45-6.92-14.76c-1.75,9.29-14.31,9.51-15.54,0.1c-4.12,9.51-17.06,3.58-16.01-7.18
	c-4.87,10.7-10.4,9.93-17.19-1.37c-7.53-8.32,13.33-67.05,13.02-84.75c-13.8-66.02-37.6-181.41-22.3-229.28
	c10.9-26.42,25.01-85.65,26.47-100.72c0.84-13.69,46.95-36.55,64.67-49.44c23.11-16.03,73.85-26.65,76-27.09l1,4.41
	c-0.52,0.11-51.91,10.86-74.22,26.33c-15.98,11.7-60.14,33.99-62.74,46.16c-1.09,12.47-12.62,62.19-22.05,89.16
	c-7.91,23.24-9.66,17.19-9.28,52.07c-1.85,22.97,15.91,147.55,27.11,187.75c2.16,15.12-19.3,68.31-13.4,83.49
	c11.56,25.91,15.5-50.16,17.11-46.54l4.67,0.68c-2.27,26.56-10.73,55.49,1.62,56.47c4.34-8.08,6.64-50.62,7.62-52.39l4.71,0.44
	c-9.76,73.01,10.9,68.47,3.64,6.59l4.72-0.32c1.44,21.02,4.75,48.28,7.35,54.44c4.22-10.05,6.91-52.8,6.03-71.46
	c2.97,9.01,12.67,34.82,19.2,33.59c6.75-1.64,6.75-8.54,3.42-13.91c-4.05-6.44-26.05-32.68-26.28-32.95
	c-4.2-25.12-12.83-69.13-14.45-100.99c0-24.29,6.38-104.82,12-109.29c7.35-4.95,15.88-8.51,20.07-10.28
	c-4.59,88.8,8.63,152.44-0.06,230l-4.04-0.4c37.26,34.89,10.17,58.63-5.14,28.54C179.41,738.52,173.47,742.35,171.12,741.64z
	 M177.58,648.75c1.12,1.34,4.7,5.62,8.89,10.73c8.33-70.18-4.4-147.7-0.13-221.78c-4.09,1.9-9.81,4.73-12.22,6.65
	c-3.33,4.87-10.29,75.22-10.29,105.82C165.23,582.44,174.17,621.78,177.58,648.75z"/>
<path d="M377.98,743.39c-16.42-5.05,7.58-34.19,10.14-49.03c-13.3,12.94-15.65,11.26-17,10.3c-29.45-3.87,25.01-45.06,30.14-56.91
	c29.29-56.32,5.97-165.24-1.4-216.83c-16.82,36.94,2.13,180.5,0.81,212.07l-4.72,0.22c3.92-23.03-24.41-200.57,5.28-217.04
	c8.7,14.13,15.78,92.81,19.81,123.3c-3.56,41.53,2.99,88.56-31.56,119.27c-9.78,12.08-20.47,21.68-23.19,29.1
	c1.11,1.29,5.27,1.81,6.99,2.79c4.5-1.79,20.4-18.41,26.95-25.54c-3.73,9.85-11.14,31.36-17.22,44.7c-2.6,4.99-7.75,14.2-5.57,18.57
	c14.54-2.09,21.32-32.31,29.75-54.13l4.52,1.33c-0.21,1.33-13.3,41.6-12.34,51.69c12.61-9.34,14.34-26.88,16.94-46.59l4.71,0.25
	c-0.07,14.1,1.72,30.22,4.53,33.17c3.36-4.06,4.74-23.63,5.91-30.86l4.69,0.5c0.05,5.6-4.95,29.85,0.98,30.26
	c7.93-12.69,7.53-72.01,8.57-79.64c49.93-111.25,14.35-231.23,10.44-343.48c-9.36-21.54-87.24-60.89-97.08-69.62l2.55-3.8
	c129.46,80.62,90.89,43.5,108.64,192.66c16.95,70.03,4.84,167.89-19.84,224.75c-1.93,5.07,2.07,104.32-19.61,78.95
	c-5.95,12.34-12.66-0.55-13.25-10.89c0.02,17.64-27.82,46.35-22.03,14.78C392.01,735.2,382.57,743.51,377.98,743.39z M373.95,701.06
	C373.96,701.06,373.96,701.06,373.95,701.06C373.96,701.06,373.96,701.06,373.95,701.06z"/>
<path d="M460.03,818.74c-0.23-1.36-5.6-33.51-6.29-49.39c-0.67-15.37-14.26-47.94-14.4-48.26l4.39-1.67
	c0.57,1.36,14.03,33.62,14.74,49.75c0.68,15.62,6.18,48.53,6.24,48.87L460.03,818.74z"/>
<path d="M250.17,815.72l-4.52-1.32c0.32-14.36,37.24-66.58,59.44-69.23l1.22,4.35C287.65,750.85,249.69,802.43,250.17,815.72z"/>
<path d="M319.99,803.82c-5.72-16.52-12.36-45.08-12.42-45.36l4.62-0.97c0.06,0.28,6.65,28.63,12.29,44.92L319.99,803.82z"/>
<path d="M153.7,811.56c-7.33-11.27,4.99-63.58,10.51-72.89l4.48,1.43c-5.27,9.11-17.44,59.35-10.38,70.5L153.7,811.56z"/>
<path d="M283.02,253.03c-1.07-2.21-26.31-54.33-27.37-69.51c-2.43-28.26-10.63-86.69,5.59-112.9c17.03-25.37,37.74-52.01,68.2-46.81
	c30.89,5.26,63.57,34.55,63.57,56.99c2.57,46.19-32.74,137.36-40.81,171.84l-4.58-1.11c8.28-35.91,43-123.75,40.66-170.73
	c0-20.2-31.23-47.71-59.67-52.55c-27.59-4.68-46.44,19.56-63.39,44.81c-15.32,24.89-7.2,82.47-4.85,110.17
	c1,14.35,26.68,67.38,26.94,67.92L283.02,253.03z"/>
</svg>
