<?xml version="1.0" encoding="utf-8"?>
<!-- Generator: Adobe Illustrator 27.6.1, SVG Export Plug-In . SVG Version: 6.00 Build 0)  -->
<svg version="1.1" id="Layer_1" xmlns="http://www.w3.org/2000/svg" xmlns:xlink="http://www.w3.org/1999/xlink" x="0px" y="0px"
	 viewBox="0 0 595.28 841.89" style="enable-background:new 0 0 595.28 841.89;" xml:space="preserve">
<path d="M367.04,257.05l-4.16-1.53c13.15-44.62,103.28-237.61-7.71-232.17c-120.75-11.44-61.34,179.81-49.79,228.43l-4.28,1.18
	C287.82,199.33,230.1,8.23,355.16,18.92C472.3,15.59,382.17,206.39,367.04,257.05z"/>
<path d="M419.54,762.11c-7.08-3.08,0.62-12.94,0.48-22.18c-3.38,12.03-10.98,20.93-20.01,18.32c-2.69-2.01-1.73-6.62-0.6-10.4
	c2.92-9.74,7.1-39.62,8.93-53.35c-24.03,30.01-33.68-2-15.5-20.14c8.84-8.25,42.49-43.85,48.25-49.96
	c-11.21-31.24-5.86-91.9-8.63-131.42c1.22-21.58-8-39.37-6.86-60.02c-6.66,53.97-3.06,158.04,2.32,201.69l-4.42,0.36
	c-7.93-58.5-8.58-192.35,4.42-253.11c0.92,19.38,2.57,29.37,1.97,55.77c0.66,18.57,8.07,35.27,7.01,55.12
	c2.16,36.51-1.59,107.78,9.12,132.86c-2.59,2.75-39.49,41.91-50.14,51.95c-6.3,5.62-10.85,18.41-5.82,25.55
	c2.32,1.67,18.66-14.75,24.54-22.49c-0.77,9.9-7.63,54.9-11.78,74.18c13.99-4.67,14.93-24.3,22.7-51.92l4.36,0.79
	c-0.24,1.72-5.65,41.32-8.35,52.39c12.48-9.61,12.66-23.72,17.01-51.03l4.42,0.34c0.07,1.92-0.87,35.35-1.27,42.21
	c11.68-2.22,6.26-20.9,9.25-36.52l4.43,0c0.02,0.32,1.84,27.06,2.81,40.36c12.6-41.27,16.68-150.5,27.14-185.16
	c10.76-59.74,25.59-100.01,4.81-166.23c-12.29-48.57-19.62-122-69.3-138.78c-15.37,0.78-39.8-31.04-40.14-34.24l3.82-2.25
	c20.33,39.24,41.29,22.82,64.55,48.8c34.45,48.42,58.03,153.22,56.19,208.7c-12.69,66.74-21.5,109.66-30.37,189.36
	c-6.32,39.45-3.59,51.04-10.78,78.08c-9.42,23.75-10.29,8.86-11.19-9.76c0.15,7.22-5.54,12.56-12.15,11.93
	c-6.03-1.96-2.6-8.53-3.03-15.49C436.94,748.52,424.24,761.75,419.54,762.11z"/>
<path d="M262.65,795.75l-4.41-0.47c0.7-46.58,45.79-76.69,90.55-70.56l-0.33,4.42C308.35,723.65,263.76,748.82,262.65,795.75z"/>
<path d="M354.99,807.23c-3.79-9.45-14.65-59.91-17.64-71.2l4.26-1.23c2.88,10.81,14.1,62.7,17.64,71.2L354.99,807.23z"/>
<path d="M463.4,813.02c-1.98-5.35-7.98-40.88-10.41-47.55l4.23-1.32c2.38,6.27,8.62,42.93,10.49,47.82L463.4,813.02z"/>
<path d="M148.33,812.78l-4.4-0.57c4.1-28.16,19.35-109.21,32.87-144.41c7.47-16.91,22.11-29.16,22.63-46.04
	c5.74-74.54-5.34-191.8,7.86-257.04l4.39,0.66c-13.16,65.71-2.06,181.91-7.82,256.38c-0.45,18.47-15.15,30.35-23.09,48.02
	C167.81,703.53,152.05,786.68,148.33,812.78z"/>
<path d="M125.72,399.27c-15.68,1.73-26.71-17.85-41.89-24.8c-50.63-23.34-19.87-96.04-17.61-138.54c9.32-30.1-5.51-67.13-10.32-97.1
	c0.01-12.13-8.24-28.57-4.55-38.6c2.97-14.2,13.4-12.05,19.87-0.83C67.86,86.5,76.9,69.64,86.47,85.78c-0.59-4.59-3-16.72,6.5-19.5
	c6.32-0.58,16.37,2.89,16.83,10.05c0,2.18,0.62,14.91,1.25,27.4c1.77-10.52-2.15-23.7,11.15-22.42
	c17.45,9.04,8.57,60.85,11.77,72.02l-4.43,0.16c-1.82-8.35,2.38-61.17-7.83-67.77c-5.09-0.48-5.12,1.46-5.38,6.94
	c0,7.25-3.78,36.29-3.94,37.52l-4.41-0.17c-1.06-3.43-0.87-51.39-4.03-56.01c-7.06-5.84-15.35-4.01-13.75,7.14
	c2.54,15.71,6.62,41.42,9.12,57.22l-4.37,0.78c-7.82-64.38-28.53-82.95-14.57-0.73l-4.38,0.7c-1.99-8.95-2.35-42.04-17.28-44.74
	c-10.48,28.71,11.94,72.78,14.49,103.34c1.78,47.46-17.88,94.98-11.6,142.44c-2.78,22.55,31.94,30.54,45,45.61
	c12.13,14.14,23.8,7.35,39.58,8.42c23.26,2.86,61.08-39.94,70.78-48.91l3.31,2.96C201.94,368.55,163.38,406.8,125.72,399.27z"/>
<path d="M129.58,326.25c-14.64-58.61-10.04-114.37,30.2-165.52c4.78-9.06,18.62-17.16,5.41-19.25c-15.8-7.9-57.59,55.03-62.39,42.32
	c6.47-3.17,48.56-54.66,63.39-46.64c26.48,3.62-16.9,37.5-17.92,48.86c-27.05,46.81-25.56,91.5-14.32,139.43L129.58,326.25z"/>
<path d="M135.81,316.3l-0.44-4.41c35.7,1.94,71.29-34.09,99.92-52.69c11.58-5.79,53.07-28.73,53.48-28.96l2.15,3.88
	c-0.42,0.23-41.98,23.22-53.65,29.05C208.01,282.67,172.21,318.14,135.81,316.3z"/>
</svg>
